<?xml version="1.0" encoding="UTF-8"?>
<svg id="Layer_1" xmlns="http://www.w3.org/2000/svg" version="1.1" viewBox="0 0 513 513">
  <!-- Generator: Adobe Illustrator 30.3.0, SVG Export Plug-In . SVG Version: 2.1.3 Build 182)  -->
  <defs>
    <style>
      .st0, .st1, .st2 {
        fill: none;
      }

      .st1 {
        stroke: #4caf50;
        stroke-linecap: round;
        stroke-width: 20px;
      }

      .st1, .st2, .st3 {
        stroke-miterlimit: 10;
      }

      .st4 {
        fill: #fff;
      }

      .st2 {
        stroke-width: 5px;
      }

      .st2, .st3 {
        stroke: #000;
      }
    </style>
  </defs>
  <rect class="st3" x=".5" y=".5" width="512" height="512" fill="none"/>
  <g>
    <g>
      <path class="st4" d="M308.71,135.23c.09,14.19-11.64,26.12-26.96,24.08-13.39-1.77-21.17-13.45-20.4-25.46.74-11.48,10.28-21.61,22.61-22.18,13.98-.64,24.67,10.79,24.75,23.56Z"/>
      <path class="st4" d="M317.35,286.25l-18.69,62.7c-1.69,5.66-6.78,8.61-12.1,8.37-4.19-.18-12.16-4.88-10.78-11.63l11.32-55.31-20.74-3.73c-4.08-.73-6.19-5.31-4.1-8.89l10.53-18c1.41-2.42,4.31-3.53,6.98-2.67l28.38,9.11c8.67,2.77,11.49,12.34,9.2,20.05Z"/>
      <path class="st4" d="M175.73,243.17l12.36-47.64c1.68-6.47,5.82-9.5,11.62-12.03l29.76-13.01-7.81,27.27c-.7,2-2.29,3.57-4.3,4.25l-6.76,2.28-15.14,45.23c-1.65,4.93-8.4,6.3-12.58,4.82-3.38-1.21-8.39-6.41-7.15-11.16Z"/>
      <path class="st4" d="M276.34,217.56l10.83,14.48c4.01,5.39,12.48,7.43,18.31,3.01l37.75-28.69c4.19-3.18,4.25-9.61,1.98-13.46-1.86-3.17-7.86-6.55-11.89-4l-32.59,20.68-18.02-32.22c-7.12-12.73-20.53-18.16-33.89-14.81-3.32.83-5.97,3.35-7.1,6.58l-39.61,147.4-30.26,58.45c-3.72,6.1-2.96,12.6,2.1,16.74,4.06,3.33,12.8,4.77,16.27-.81,13.17-21.19,38.57-63.53,38.57-63.53l47.55-109.81Z"/>
    </g>
    <path class="st1" d="M91.35,451.92l64.86-38.64,30.34-16.89c10.04-5.19,19.63-10.96,31.03-14.33l52.1-15.41c6.75-1.99,18.04-9.06,18.04-9.06l50.33-33.48s19.31-5.16,28.45-8.62c7.5-1.55,13.96-3.76,20.41-7.75l48.52-30.03"/>
  </g>
  <path class="st0" d="M325.39,97.1"/>
  <path class="st0" d="M287.72,104.22"/>
  <path class="st2" d="M212.98,119.47"/>
  <path class="st2" d="M338.2,101.83"/>
  <path class="st0" d="M-297.28,97.1"/>
  <path class="st2" d="M-284.47,101.83"/>
  <path class="st2" d="M-1049.68,119.47"/>
</svg>